/* XPM */
static char *_e7ae4a982604d898593423854f29c08EwV9Z4XhlynmphxW[] = {
/* columns rows colors chars-per-pixel */
"64 64 16 1 ",
"  c None",
". c #6A45A5",
"X c #170F24",
"o c #3A2F5A",
"O c #2A1B41",
"+ c #B5A75A",
"@ c #FAFFA5",
"# c #625613",
"$ c #5EBE4B",
"% c #234B1B",
"& c #FDFFD6",
"* c #1C2B35",
"= c #2A4150",
"- c #5E978E",
"; c #3C5C71",
": c white",
/* pixels */
"                                                                ",
"                                                                ",
"                                                                ",
"                   .                          .                 ",
"                  X..                        ..X                ",
"                  Xo..                      ..oX                ",
"                 Xooo..                    ..oooX               ",
"                 Xooo...                  ...oooX               ",
"                 Xoooo...                ...ooooX               ",
"                XOooooo...              ...oooooOX              ",
"                XOooooo....................oooooOX              ",
"                XOoooooo..................ooooooOX              ",
"                XOoooooo..oooooooooooooo..ooooooOX              ",
"                XOoooOo.oooooooooooooooooo.oooooOX              ",
"                XOOoO.ooooooooooooooooooooooOoooOX              ",
"                XOOO.ooooooooooooooooooooooo.OoOOX              ",
"                XOOO.oooooooooooooooooooooooo.OOOX              ",
"                 XO.oooooooo..........ooooooo.OOX               ",
"                 XXooooooo..++++++++++..oooooo.XX               ",
"                 Xoooooo..++++++++++++++..ooooooX               ",
"                Xoooooo.++++++++++++++++++.ooooooX              ",
"                Xooooo.+++++@##@@@@##++++++.oooooX              ",
"               Xoooooo.+++@@@@@@@@@@@@@++++.ooooooX             ",
"              Xooooooo.++@@@@@@@@@@@@@@@@++.oooooooX            ",
"             Xooooooo++@@##$%&@@@@@@&%$##@@+XoooooooX           ",
"            XOOoooooX+@@&&$$%$&@@@@&$%$$&&@@+XoooooOOX          ",
"             XXOOoooX+@@@@&$%$$@@@@$$%$&@@@@+XoooOOXX           ",
"               XXOOOOX+@@@@@@@@@&&@@@@@@@@@+XOOOOXX             ",
"                 XXOOOX+@@@@@@@@##@@@@@@@@+XOOOXX               ",
"                   XXXXX+@@@@@@@@@@@@@@@@+XXXXX                 ",
"                        XXX@@@@@@@@@@@@XXX                      ",
"                           XXXXXXXXXXXX                         ",
"                          XOO*==**==*OOX                        ",
"                         XOO*-;=**=;-*OOX       @&              ",
"                        XOO*--;*++*;--*OOX     @@@&             ",
"                       XOOO*-;=*++*=;-*OOOX     @@&             ",
"                       XOOO*==*++++*==*OOOX     +@@             ",
"                      XoooOO**++@@++**OOoooX    +@@             ",
"                      XooooOX++@@@@++XOooooX    +@+             ",
"                     XoooooX++@@@@@@++XoooooX  #@@              ",
"                     XooooX++@@@@@@@@++XooooX##++#              ",
"                    XoooooX+@@@@@@@@@@+XoooooX++#               ",
"                    XoooooX@@@@@@@@@@@@XoooooX+#                ",
"                    XooooX@@+@@@@@@@@+@@XooooX#                 ",
"                   XOooooX@@+@@&++&@@+@@XooooOX                 ",
"                   XOooooX@@+#@&++&@#+@@XooooOX                 ",
"                  XOOooooX@@@#&&##&&#@@@XooooOOX                ",
"                 XOOoooooX@@@+#&##&#+@@@XoooooOOX               ",
"                XOooooooX+@@@@+####+@@@@+XoooooOOX              ",
"               XoooooOooX+@@@@@++++@@@@@+XooOooooOX             ",
"             XXoooooooooX+@@@@@@@@@@@@@@+XoooooooooXX           ",
"           XXooooOooooooX+@@@@@@@@@@@@@@+XooooooOooooXX         ",
"          XoooooooooOoooX+@@@@@@@@@@@@@@+XoooOoooooooooX        ",
"         XoooooOooooooooX+@@@@@@@@@@@@@@+OooooooooOoooooX       ",
"          XXooOooooOooooOX@@@@@&&&&@@@@@XOooooOooooOooXX        ",
"            XXOOooOOooooOX@@@@@++++@@@@@XOooooOOooOOXX          ",
"              XXOOOOOOOOOX+@@@+####+@@@+XOOOOOOOOOXX            ",
"                XXXOOOOOOX++@@#    #@@++XOOOOOOXXX              ",
"                   XXXXXX #+++#    #+++# XXXXXX                 ",
"                          #&&&#    #&&&#                        ",
"                           ###      ###                         ",
"                                                                ",
"                                                                ",
"                                                                "
};
