/* XPM */
static char *cfb08f61e020455bc0a60a63e0e8e2df0geJhDpVG5IRKRpf[] = {
/* columns rows colors chars-per-pixel */
"64 64 16 1 ",
"  c None",
". c #6A45A5",
"X c #3A2F5A",
"o c #170F24",
"O c #2A1B41",
"+ c #B5A75A",
"@ c #FAFFA5",
"# c #FDFFD6",
"$ c #625613",
"% c #234B1B",
"& c #5EBE4B",
"* c #2A4150",
"= c #1C2B35",
"- c #73A8A0",
"; c #5E978E",
": c white",
/* pixels */
"                                                                ",
"                                                                ",
"                                                                ",
"                                                                ",
"                                                                ",
"                                                                ",
"                                       .X.....                  ",
"                                     .X..XXXXo                  ",
"                                   .X..XXXXXXo                  ",
"                                 .X..XXXXXXXOo                  ",
"                               .X..XXXXXXXXOo                   ",
"                           ......XXXXXXXXXOOo                   ",
"                         .......OOXXXXXXOOOo                    ",
"                       ...XXXXXXXXOXXXOOOOOo                    ",
"                      ..XXXXXXXXXXXXOOOOOOo                     ",
"                     ..XXXXXXXXXXXXXXOOOOOo                     ",
"                     ...XXXXXXXXXXXXXXOOOOo                     ",
"                      ++..XXXXXXXXXXXXXXOOo                     ",
"                     +@@++..XXXXXXXXXXXXXo                      ",
"                     +#@@@@+.XXXXXXXXXXXXXo                     ",
"                     @$$+@@@.XXXXXXXXXXXXXo                     ",
"                     @@@@@@@+.XXXXXXXXXXXXOo                    ",
"                     @@+#@@@@.XXXXXXXXXXXXOo                    ",
"                     @@%&$$@@.OXXXXXXXXXXXXOo                   ",
"                     @@%&&#@@+.OXXXXXXXXXXXXXo                  ",
"                    @@@%&###@@+.OXXXXXXXXXXXOOo                 ",
"                   $$#@@##@@@@++.OXXXXXXXXXOOOOo                ",
"                   +@@@@@@@@@++oOXXXXXXXXXOOOOo                 ",
"                   +@@@@@@@@++oOXXXXXXXXOOOOOo                  ",
"                    +@@@@@@++oOXXXXXXXXOOOOoo                   ",
"                     +@@@@++oOXXXXXXOOOOOoo                     ",
"                       +++ooOOOOOOOOOOOoo                       ",
"                         oooooooooooooo                         ",
"                         **=oOOOOOOo                            ",
"                        -;*=oOOOOOOOo                           ",
"                       -;*=$oOOOOOOOo                           ",
"                       ;*=$$oOOXOOOOOo                          ",
"                       ==$$$oOXXOXOOOo                          ",
"                        +@+$oOXXOXXXOOo                         ",
"                        +@++oOXXXOXXOXo                         ",
"                        +#@+$oXXXOXXXXXo                        ",
"                        ##@@$oXXXXXXXXXo                        ",
"                       ##@@+$oXXXOXXXXXXo                       ",
"                       #@@+$$oXXXXXXXXXXo                       ",
"                      ##@++$$oXXXXXXXXXXXo                      ",
"                      +@@+$@$oXXXXXXXXXXXXo                     ",
"                      +@+$@@+oXXXXXXXXXXXXXo                    ",
"                      $@$+@@+oXXXXXXXXXXXXXXo      ####         ",
"                       $$+@@+oXXXXXXXXXXXXXXXo    #@@@@#        ",
"                         +@@+oXXXXXXXXXXXOXXXXo  #@@@@@@        ",
"                         +@@+oXXXOXXOXXXXXXXXXXo @@@@@@         ",
"                         +@@oXXXXXXXXXXXXXOXXXXo@+++            ",
"                         +@@oXXXXOXXXOXXXXXOXXOo$$$             ",
"                         +@@oXXXXOXXXOXXXXXXOOo$$$              ",
"                         +@@oXXXXXOXXXOXXXXOOo                  ",
"                          @+OXXXXXOXXOOOOOOoo                   ",
"                          ++OOXXXOOOOOooooo                     ",
"                        ##@@OOOOOOoooo                          ",
"                       #++++oooooo                              ",
"                                                                ",
"                                                                ",
"                                                                ",
"                                                                ",
"                                                                "
};
