/* XPM */
static char *_442648b99ff4b88ae54cf37f1b49223OhXYM5cbfF2APwlr[] = {
/* columns rows colors chars-per-pixel */
"64 64 4 1 ",
"  c #EF5800",
". c #FF8B1F",
"X c #F3680C",
"o c white",
/* pixels */
"                                                         ...    ",
"                                                      XX.XX..XXX",
"                                                     XXX.X...XXX",
"                                                    XXXXX...XXXX",
"                                                    XXXXXXXXXXXX",
"                                                    XXXXXXXXXXXX",
"                                                     XXXXXXXXXXX",
"                                                       XXXXXXXX ",
"                                                                ",
"                                                                ",
"                                                                ",
"                                                                ",
"                                                                ",
"                                                                ",
"                                                                ",
"                                                                ",
"         XXXX                                                   ",
"       XXX..XXXX                                                ",
"      XXX.XXXXXXX                                               ",
"      XXXXXXXXXXX                                               ",
"       XXXXXXXXX                                                ",
"         XXXXXX                                                 ",
"                                                                ",
"                                                                ",
"                                                                ",
"                                                                ",
"                                                                ",
"                                                                ",
"                                                                ",
"                                                                ",
"                                                                ",
"                                                                ",
"                                                                ",
"                                                                ",
"                                                                ",
"                                                                ",
"                                      XXXXXXXX                  ",
"                                    XXXXX...XXXX                ",
"                                   XXXXX.XXX.XXX                ",
"                                   XXXX..XX...XXX               ",
"                                  XXXXX.......XXXX              ",
"                                  XXXXXXXX....XXXX              ",
"                                  XXXXXXXXXXXXXXXX              ",
"X                                  XXXXXXXXXXXXXX               ",
"XX                                  XXXXXXXXXXXX                ",
"XX                                    XXXXXXX                   ",
"XX                                                              ",
"XXX                                                             ",
"XXX                                                             ",
"XXX                                                             ",
"XX                                                              ",
"                                                                ",
"                                                                ",
"                                                                ",
"                                                                ",
"                                                                ",
"                                                                ",
"                                                                ",
"                                                                ",
"                                                                ",
"                                                                ",
"                                                                ",
"                                                                ",
"                                                                "
};
