/* XPM */
static char *_b8a8fc765394da6bdc767ebf5d821500URXMIJiWQSi3qdH[] = {
/* columns rows colors chars-per-pixel */
"64 64 6 1 ",
"  c #2F2E2F",
". c #85578E",
"X c #BE9BB0",
"o c #564064",
"O c #3E2F5A",
"+ c white",
/* pixels */
"                                                                ",
"                                                                ",
"  ..XXXXXXXXXXXXXXXXXXXX..  ..XXXXXXXXXXXXXXXXXXXXXXXXXXXX..  ..",
"  ..XXXXXXXXXXXXXXXXXXXX..  ..XXXXXXXXXXXXXXXXXXXXXXXXXXXX..  ..",
"  XX....................XX  XX..........oo......oo........XX  XX",
"  XX....................XX  XX..........oo......oo........XX  XX",
"  ....oooooooo..oooooo....  ....oooo..oooooo..oooooooooooo..  ..",
"  ....oooooooo..oooooo....  ....oooo..oooooo..oooooooooooo..  ..",
"  ..ooooooooooooooooOOOO..  ..OOOOooooooooooooooooooooOOoooo  oo",
"  ..ooooooooooooooooOOOO..  ..OOOOooooooooooooooooooooOOoooo  oo",
"  oo..ooooOOOOOOOOOOOOOOOO  OOOOOOOOOOOOooooOOOOOOOOOOOOOOOO  OO",
"  oo..ooooOOOOOOOOOOOOOOOO  OOOOOOOOOOOOooooOOOOOOOOOOOOOOOO  OO",
"  OOooooOOOOOOOOOOOOOOOO      OOOOOOOOOOOOOOOOOOOOOOOOOOOO      ",
"  OOooooOOOOOOOOOOOOOOOO      OOOOOOOOOOOOOOOOOOOOOOOOOOOO      ",
"                                                                ",
"                                                                ",
"  oo......................................      ................",
"  oo......................................      ................",
"  ............................oooo..........  ............oooo..",
"  ............................oooo..........  ............oooo..",
"  ....oooooo..oooo..oooooo..oooooooo..oo....  ....oo..oooooooooo",
"  ....oooooo..oooo..oooooo..oooooooo..oo....  ....oo..oooooooooo",
"  ..oo..ooooooooooooooOOooooooOOOOOOooooOO..  ..OOooooooooOOOOoo",
"  ..oo..ooooooooooooooOOooooooOOOOOOooooOO..  ..OOooooooooOOOOoo",
"  ..ooooooooooOOooooOOOOOOooooooooooooOOOOOO  OOOOOOooooOOOOoooo",
"  ..ooooooooooOOooooOOOOOOooooooooooooOOOOOO  OOOOOOooooOOOOoooo",
"  oo..ooooooOOOOOOOOOOOOOOOOOOOOooooOOOOOOOO  OOOOOOOOOOOOOOOOOO",
"  oo..ooooooOOOOOOOOOOOOOOOOOOOOooooOOOOOOOO  OOOOOOOOOOOOOOOOOO",
"  OOooooOOOOOOOOOOOOOOOOOOOOOOOOOOOOOOOOOO      OOOOOOOOOOOOOOOO",
"  OOooooOOOOOOOOOOOOOOOOOOOOOOOOOOOOOOOOOO      OOOOOOOOOOOOOOOO",
"                                                                ",
"                                                                ",
"  oo................      ........................      ........",
"  oo................      ........................      ........",
"  ............oo......  ............oo..............  ......oo..",
"  ............oo......  ............oo..............  ......oo..",
"  ......oo..oooooo....  ....oooo..oooooooo..oooo....  ....oooooo",
"  ......oo..oooooo....  ....oooo..oooooooo..oooo....  ....oooooo",
"  ....ooooOOoooooooo..  ..ooooooooooOOooooOOoooooo..  ..ooooOOoo",
"  ....ooooOOoooooooo..  ..ooooooooooOOooooOOoooooo..  ..ooooOOoo",
"  ..oo..ooooOOooooooOO  OOooooooooOOOOooooooOOooooOO  OOooooooOO",
"  ..oo..ooooOOooooooOO  OOooooooooOOOOooooooOOooooOO  OOooooooOO",
"  ..ooooooooOOOOooOOOO  OOOOooOOOOOOooooOOooooooOOOO  OOOOoooooo",
"  ..ooooooooOOOOooOOOO  OOOOooOOOOOOooooOOooooooOOOO  OOOOoooooo",
"  oo..ooooOOOOOOOOOOOO  OOOOOOOOOOOOOOOOOOOOooOOOOOO  OOOOOOooOO",
"  oo..ooooOOOOOOOOOOOO  OOOOOOOOOOOOOOOOOOOOooOOOOOO  OOOOOOooOO",
"  OOooOOOOOOOOOOOOOO      OOOOOOOOOOOOOOOOOOOOOOOO      OOOOOOOO",
"  OOooOOOOOOOOOOOOOO      OOOOOOOOOOOOOOOOOOOOOOOO      OOOOOOOO",
"                                                                ",
"                                                                ",
"  oo....................................      ..................",
"  oo....................................      ..................",
"  ......oo................oo......oo......  ................oo..",
"  ......oo................oo......oo......  ................oo..",
"  ........oo......oooo..oooooo..oooooo....  ....oooo..oooooooooo",
"  ........oo......oooo..oooooo..oooooo....  ....oooo..oooooooooo",
"  ....oooo..OO..OOooooooooooooOOooooooOO..  ..OOooooooooooooOOoo",
"  ....oooo..OO..OOooooooooooooOOooooooOO..  ..OOooooooooooooOOoo",
"  ..ooooooooOOOOOOOOooOOOOooooooooooOOOOOO  OOOOOOooooooooOOOOoo",
"  ..ooooooooOOOOOOOOooOOOOooooooooooOOOOOO  OOOOOOooooooooOOOOoo",
"  oo..ooooOOOOOOOOOOOOOOOOOOOOOOooOOOOOOOO  OOOOOOOOooOOOOOOOOOO",
"  oo..ooooOOOOOOOOOOOOOOOOOOOOOOooOOOOOOOO  OOOOOOOOooOOOOOOOOOO",
"  OOooOOOOOOOOOOOOOOOOOOOOOOOOOOOOOOOOOO      OOOOOOOOOOOOOOOOOO",
"  OOooOOOOOOOOOOOOOOOOOOOOOOOOOOOOOOOOOO      OOOOOOOOOOOOOOOOOO"
};
