/* XPM */
static char *d9822345082d422fc614516d6053c464lz8uvvkOSP25Ezb6[] = {
/* columns rows colors chars-per-pixel */
"64 64 11 1 ",
"  c None",
". c #EEA160",
"X c #BF7958",
"o c #7A444A",
"O c #A05B53",
"+ c #DFF6F5",
"@ c #F0891F",
"# c #ED6124",
"$ c #E6482E",
"% c #A93B3B",
"& c white",
/* pixels */
"                                                                ",
"                                                                ",
"                                                                ",
"                                                                ",
"                            ........                            ",
"                            ........                            ",
"                          ..........XX                          ",
"                          ..........XX                          ",
"                          XX....XXXXoo                          ",
"                          XX....XXXXoo                          ",
"                          XXXXOOOOoooo                          ",
"                          XXXXOOOOoooo                          ",
"                          OOXXOOoooooo                          ",
"                          OOXXOOoooooo                          ",
"                          OOOOOOoooooo                          ",
"                          OOOOOOoooooo                          ",
"                      ++++OOOOoooooooo++++                      ",
"                      ++++OOOOoooooooo++++                      ",
"                ++++++    ++OOOOoooo++    ++++++                ",
"                ++++++    ++OOOOoooo++    ++++++                ",
"          ++++++        ++OO++++++++oo++        ++++++          ",
"          ++++++        ++OO++++++++oo++        ++++++          ",
"      ++++              ++  OOOOoooo  ++              ++++      ",
"      ++++              ++  OOOOoooo  ++              ++++      ",
"      ++  ++++++          ++  oooo  ++          ++++++  ++      ",
"      ++  ++++++          ++  oooo  ++          ++++++  ++      ",
"      ++        ++++++++                ++++++++        ++      ",
"      ++        ++++++++                ++++++++        ++      ",
"      ++  @@++@@@@@@@@@@++++++++++++++++@@@@##########  ++      ",
"      ++  @@++@@@@@@@@@@++++++++++++++++@@@@##########  ++      ",
"      ++  $$++++++@@@@@@@@@@@@@@@@@@@@@@@@##########%%  ++      ",
"      ++  $$++++++@@@@@@@@@@@@@@@@@@@@@@@@##########%%  ++      ",
"      ++  $$++++++@@@@@@@@@@@@@@@@@@@@@@@@######%%++%%  ++      ",
"      ++  $$++++++@@@@@@@@@@@@@@@@@@@@@@@@######%%++%%  ++      ",
"      ++  $$$$++++$$$$$$@@@@@@@@@@@@@@@@$$$$%%%%++++%%  ++      ",
"      ++  $$$$++++$$$$$$@@@@@@@@@@@@@@@@$$$$%%%%++++%%  ++      ",
"      ++  $$$$$$$$$$$$$$$$$$$$$$$$$$$$$$$$%%%%%%++++%%  ++      ",
"      ++  $$$$$$$$$$$$$$$$$$$$$$$$$$$$$$$$%%%%%%++++%%  ++      ",
"      ++  $$++$$$$$$$$$$$$$$$$$$$$$$$$%%%%%%%%%%++++%%  ++      ",
"      ++  $$++$$$$$$$$$$$$$$$$$$$$$$$$%%%%%%%%%%++++%%  ++      ",
"      ++  $$++++++$$$$$$$$$$$$$$%%%%%%%%%%%%%%%%++%%%%  ++      ",
"      ++  $$++++++$$$$$$$$$$$$$$%%%%%%%%%%%%%%%%++%%%%  ++      ",
"      ++  $$$$$$++$$$$$$$$%%%%%%%%%%%%%%%%%%%%%%%%%%%%  ++      ",
"      ++  $$$$$$++$$$$$$$$%%%%%%%%%%%%%%%%%%%%%%%%%%%%  ++      ",
"      ++  $$++$$$$%%%%%%%%%%%%%%%%%%%%%%%%%%%%%%%%++%%  ++      ",
"      ++  $$++$$$$%%%%%%%%%%%%%%%%%%%%%%%%%%%%%%%%++%%  ++      ",
"      ++    ++++++++%%%%%%%%%%%%%%%%%%%%%%%%%%++++      ++      ",
"      ++    ++++++++%%%%%%%%%%%%%%%%%%%%%%%%%%++++      ++      ",
"      ++++        ++++++++++%%%%%%%%%%%%  ++++        ++++      ",
"      ++++        ++++++++++%%%%%%%%%%%%  ++++        ++++      ",
"      ++++++++++          ++++  ++  ++          ++++++++++      ",
"      ++++++++++          ++++  ++  ++          ++++++++++      ",
"          ++++++++++++++                ++++++++++++++          ",
"          ++++++++++++++                ++++++++++++++          ",
"                ++++++++++++++++++++++++++++++++                ",
"                ++++++++++++++++++++++++++++++++                ",
"                        ++++++++++++++++                        ",
"                        ++++++++++++++++                        ",
"                                                                ",
"                                                                ",
"                                                                ",
"                                                                ",
"                                                                ",
"                                                                "
};
