/* XPM */
static char *_e41096d60b04cb0be3b0b591e1d9508byUT6r5geISDLui5[] = {
/* columns rows colors chars-per-pixel */
"64 64 5 1 ",
"  c #39314B",
". c #2F2E2F",
"X c #3E2F5A",
"o c #564064",
"O c white",
/* pixels */
" ..      XX          XX            ..                    XX     ",
".....                            ......                        .",
".....                            ......                        .",
"................................................................",
"................................................................",
"ooooooooooooooooooooooo......oooooooooooooooooooooooo......ooooo",
"ooooooooooooooooooooooo......oooooooooooooooooooooooo......ooooo",
"oooooooooXXoooooooooooooo..ooooooooooooXXooooooXXoooooo..ooooooo",
"oooooooooXXoooooooooooooo..ooooooooooooXXooooooXXoooooo..ooooooo",
"XooXXXXXXXXXXooooXXXXoooo..ooooXXXXooXXXXXXooXXXXXXoooo..ooooXXX",
"XooXXXXXXXXXXooooXXXXoooo..ooooXXXXooXXXXXXooXXXXXXoooo..ooooXXX",
"XXXXXXXXX  XXXXXXXXXX  oo..oo  XXXXXXXXXXXXXXXXXXXX  oo..oo  XXX",
"XXXXXXXXX  XXXXXXXXXX  oo..oo  XXXXXXXXXXXXXXXXXXXX  oo..oo  XXX",
"XXXXXXX    XXXXXXXX      ..      XX    XXXXXXXXXX      ..      X",
"XXXXXXX    XXXXXXXX      ..      XX    XXXXXXXXXX      ..      X",
" XX            XX        ..                  XX        ..       ",
" XX            XX        ..                  XX        ..       ",
"                       ......                        ......     ",
"                       ......                        ......     ",
"................................................................",
"................................................................",
"ooooooo......oooooooooooooooooooooooo......ooooooooooooooooooooo",
"ooooooo......oooooooooooooooooooooooo......ooooooooooooooooooooo",
"ooooooooo..ooooooooooooXXoooooooooooooo..ooooooooooooXXooooooXXo",
"ooooooooo..ooooooooooooXXoooooooooooooo..ooooooooooooXXooooooXXo",
"XXXXXXXoo..ooXXXXooXXXXXXXXooXXXXXXoooo..ooooXXXXooXXXXXXooXXXXX",
"XXXXXXXoo..ooXXXXooXXXXXXXXooXXXXXXoooo..ooooXXXXooXXXXXXooXXXXX",
"XXX  XXXX..XXXXXXXXXXXX  XXXXXXXX    oo..oo    XXXXXXXXXXXXXXXXX",
"XXX  XXXX..XXXXXXXXXXXX  XXXXXXXX    oo..oo    XXXXXXXXXXXXXXXXX",
"         ..                            ..            XXXX       ",
"         ..                            ..            XXXX       ",
"       ......                        ......                     ",
"       ......                        ......                     ",
"................................................................",
"................................................................",
"ooooooooooooooooooo......oooooooooooooooooooooooooooooo......ooo",
"ooooooooooooooooooo......oooooooooooooooooooooooooooooo......ooo",
"oooooooXXXXoooooooooo..ooooooooooooooooooooXXXXoooooooooo..ooooo",
"oooooooXXXXoooooooooo..ooooooooooooooooooooXXXXoooooooooo..ooooo",
"XooXXXXXXXXXXooXXoooo..ooooXXXXooXXXXXXooXXXXXXXXooXXoooo..ooooX",
"XooXXXXXXXXXXooXXoooo..ooooXXXXooXXXXXXooXXXXXXXXooXXoooo..ooooX",
"XXXXXXX    XXXXXX  oo..oo  XXXXXXXX  XXXXXX      XXXX  oo..oo  X",
"XXXXXXX    XXXXXX  oo..oo  XXXXXXXX  XXXXXX      XXXX  oo..oo  X",
" XXXX    XXXXXX      ..      XXXX      XXXXXXXXXXXX      ..     ",
" XXXX    XXXXXX      ..      XXXX      XXXXXXXXXXXX      ..     ",
"                     ..                      XXXX        ..     ",
"                     ..                      XXXX        ..     ",
"                   ......                              ......   ",
"                   ......                              ......   ",
"................................................................",
"................................................................",
".....oooooooooooooooooooooooooooo......oooooooooooooooooooooooo.",
".....oooooooooooooooooooooooooooo......oooooooooooooooooooooooo.",
"o..ooooooXXooooooooooooooooXXoooooo..ooooooooooooXXooooooooooooo",
"o..ooooooXXooooooooooooooooXXoooooo..ooooooooooooXXooooooooooooo",
"o..ooooXXXXXXXXooXXXXXXooXXXXXXoooo..ooooXXXXooXXXXXXXXooXXXXooo",
"o..ooooXXXXXXXXooXXXXXXooXXXXXXoooo..ooooXXXXooXXXXXXXXooXXXXooo",
"o..ooXXXXXXXXXXXXXXXXXX  XXXXXXXXoo..ooXXXXXXXXXX  XXXX  XXXXXXo",
"o..ooXXXXXXXXXXXXXXXXXX  XXXXXXXXoo..ooXXXXXXXXXX  XXXX  XXXXXXo",
" ..  XXXXXXXXXXXX    XXXX  XXXXXX  ..  XXXXXXXX    XXXXXX  XXXX ",
" ..  XXXXXXXXXXXX    XXXX  XXXXXX  ..  XXXXXXXX    XXXXXX  XXXX ",
" ..    XXXXXXXX    XXXXXX    XX    ..    XX      XXXX  XXXXXX   ",
" ..    XXXXXXXX    XXXXXX    XX    ..    XX      XXXX  XXXXXX   ",
" ..      XX          XX            ..                    XX     "
};
